<mxfile host="Electron" agent="Mozilla/5.0 (Windows NT 10.0; Win64; x64) AppleWebKit/537.36 (KHTML, like Gecko) draw.io/26.1.1 Chrome/132.0.6834.210 Electron/34.3.3 Safari/537.36" version="26.1.1">
  <diagram name="бд" id="ctb7gI_ueX9C2qkwRM6h">
    <mxGraphModel dx="1500" dy="899" grid="0" gridSize="10" guides="1" tooltips="1" connect="1" arrows="1" fold="1" page="1" pageScale="1" pageWidth="827" pageHeight="1169" math="0" shadow="0">
      <root>
        <mxCell id="0" />
        <mxCell id="1" parent="0" />
        <mxCell id="w9NcB5GAWRtdl-f4jeIq-3" value="GroupEntity" style="swimlane;childLayout=stackLayout;horizontal=1;startSize=50;horizontalStack=0;rounded=1;fontSize=15;fontStyle=0;strokeWidth=2;resizeParent=0;resizeLast=1;shadow=0;dashed=0;align=center;arcSize=4;whiteSpace=wrap;html=1;fontColor=default;" vertex="1" parent="1">
          <mxGeometry x="561" y="426" width="160" height="100" as="geometry" />
        </mxCell>
        <mxCell id="w9NcB5GAWRtdl-f4jeIq-4" value="+course {PK}&lt;div&gt;+&lt;span style=&quot;background-color: transparent; color: light-dark(rgb(0, 0, 0), rgb(255, 255, 255));&quot;&gt;group {PK}&lt;/span&gt;&lt;/div&gt;" style="align=left;strokeColor=none;fillColor=none;spacingLeft=4;spacingRight=4;fontSize=15;verticalAlign=top;resizable=0;rotatable=0;part=1;html=1;whiteSpace=wrap;" vertex="1" parent="w9NcB5GAWRtdl-f4jeIq-3">
          <mxGeometry y="50" width="160" height="50" as="geometry" />
        </mxCell>
        <mxCell id="w9NcB5GAWRtdl-f4jeIq-7" value="TeacherEntity" style="swimlane;childLayout=stackLayout;horizontal=1;startSize=50;horizontalStack=0;rounded=1;fontSize=15;fontStyle=0;strokeWidth=2;resizeParent=0;resizeLast=1;shadow=0;dashed=0;align=center;arcSize=4;whiteSpace=wrap;html=1;fontColor=default;" vertex="1" parent="1">
          <mxGeometry x="161" y="436" width="160" height="80" as="geometry" />
        </mxCell>
        <mxCell id="w9NcB5GAWRtdl-f4jeIq-8" value="+name {PK}" style="align=left;strokeColor=none;fillColor=none;spacingLeft=4;spacingRight=4;fontSize=15;verticalAlign=top;resizable=0;rotatable=0;part=1;html=1;whiteSpace=wrap;" vertex="1" parent="w9NcB5GAWRtdl-f4jeIq-7">
          <mxGeometry y="50" width="160" height="30" as="geometry" />
        </mxCell>
        <mxCell id="w9NcB5GAWRtdl-f4jeIq-9" value="LessonEntity" style="swimlane;childLayout=stackLayout;horizontal=1;startSize=50;horizontalStack=0;rounded=1;fontSize=15;fontStyle=0;strokeWidth=2;resizeParent=0;resizeLast=1;shadow=0;dashed=0;align=center;arcSize=4;whiteSpace=wrap;html=1;fontColor=default;" vertex="1" parent="1">
          <mxGeometry x="41" y="56" width="330" height="330" as="geometry" />
        </mxCell>
        <mxCell id="w9NcB5GAWRtdl-f4jeIq-10" value="&lt;div&gt;+ id {PK}&lt;/div&gt;&lt;div&gt;+ dayOfWeek&amp;nbsp;&amp;nbsp;&lt;/div&gt;&lt;div&gt;+ name&amp;nbsp;&amp;nbsp;&lt;/div&gt;&lt;div&gt;+ startTime&amp;nbsp;&amp;nbsp;&lt;/div&gt;&lt;div&gt;+ endTime&amp;nbsp;&amp;nbsp;&lt;/div&gt;&lt;div&gt;+ classroom&amp;nbsp;&amp;nbsp;&lt;/div&gt;&lt;div&gt;+ teacher&amp;nbsp;&amp;nbsp;&lt;/div&gt;&lt;div&gt;+ subGroup&amp;nbsp;&amp;nbsp;&lt;/div&gt;&lt;div&gt;+ groupId&amp;nbsp;&amp;nbsp;&lt;/div&gt;&lt;div&gt;+ frequency&amp;nbsp;&amp;nbsp;&lt;/div&gt;&lt;div&gt;+ idOfReminderBeforeLesson&amp;nbsp; {FK}&lt;/div&gt;&lt;div&gt;+ idOfReminderAfterBeginningLesson&amp;nbsp; {FK}&lt;/div&gt;&lt;div&gt;+ note&amp;nbsp;&amp;nbsp;&lt;/div&gt;&lt;div&gt;+ linkToCourse&amp;nbsp;&amp;nbsp;&lt;/div&gt;" style="align=left;strokeColor=none;fillColor=none;spacingLeft=4;spacingRight=4;fontSize=15;verticalAlign=top;resizable=0;rotatable=0;part=1;html=1;whiteSpace=wrap;" vertex="1" parent="w9NcB5GAWRtdl-f4jeIq-9">
          <mxGeometry y="50" width="330" height="280" as="geometry" />
        </mxCell>
        <mxCell id="w9NcB5GAWRtdl-f4jeIq-18" value="ReminderEntity" style="swimlane;childLayout=stackLayout;horizontal=1;startSize=50;horizontalStack=0;rounded=1;fontSize=15;fontStyle=0;strokeWidth=2;resizeParent=0;resizeLast=1;shadow=0;dashed=0;align=center;arcSize=4;whiteSpace=wrap;html=1;fontColor=default;" vertex="1" parent="1">
          <mxGeometry x="461" y="126" width="330" height="190" as="geometry" />
        </mxCell>
        <mxCell id="w9NcB5GAWRtdl-f4jeIq-19" value="&lt;div&gt;+ id {PK}&lt;/div&gt;&lt;div&gt;+ idOfReminder&lt;/div&gt;&lt;div&gt;+ title&lt;/div&gt;&lt;div&gt;+ text&lt;/div&gt;&lt;div&gt;+ dt&lt;/div&gt;&lt;div&gt;+ duration&lt;/div&gt;&lt;div&gt;+ type&lt;/div&gt;" style="align=left;strokeColor=none;fillColor=none;spacingLeft=4;spacingRight=4;fontSize=15;verticalAlign=top;resizable=0;rotatable=0;part=1;html=1;whiteSpace=wrap;" vertex="1" parent="w9NcB5GAWRtdl-f4jeIq-18">
          <mxGeometry y="50" width="330" height="140" as="geometry" />
        </mxCell>
        <mxCell id="w9NcB5GAWRtdl-f4jeIq-22" value="" style="endArrow=none;html=1;rounded=0;fontFamily=Helvetica;fontSize=12;fontColor=default;autosize=1;resizable=0;exitX=1;exitY=0.5;exitDx=0;exitDy=0;entryX=0;entryY=0.5;entryDx=0;entryDy=0;" edge="1" parent="1" source="w9NcB5GAWRtdl-f4jeIq-10" target="w9NcB5GAWRtdl-f4jeIq-19">
          <mxGeometry relative="1" as="geometry">
            <mxPoint x="281" y="326" as="sourcePoint" />
            <mxPoint x="441" y="326" as="targetPoint" />
          </mxGeometry>
        </mxCell>
      </root>
    </mxGraphModel>
  </diagram>
</mxfile>
